<?xml version="1.0" standalone="no"?><!DOCTYPE svg PUBLIC "-//W3C//DTD SVG 1.1//EN" "http://www.w3.org/Graphics/SVG/1.1/DTD/svg11.dtd"><svg class="icon" width="200px" height="200.00px" viewBox="0 0 1024 1024" version="1.1" xmlns="http://www.w3.org/2000/svg"><path d="M582.4 550.4l0 70.4c0 19.2 19.2 38.4 38.4 38.4l140.8 0L761.6 512 620.8 512C601.6 512 582.4 531.2 582.4 550.4zM672 531.2c32 0 51.2 25.6 51.2 51.2S704 640 672 640C640 640 620.8 614.4 620.8 582.4S646.4 531.2 672 531.2zM262.4 339.2c0 6.4 0 6.4 6.4 12.8l0 0c0 0 0 0 0 6.4l0 0 0 0 0 0 0 0 0 0 0 0c0 0 0 0 6.4 0l0 0 6.4 0 307.2 0L588.8 262.4 294.4 262.4C275.2 262.4 256 281.6 256 300.8L262.4 339.2C262.4 332.8 262.4 339.2 262.4 339.2L262.4 339.2zM691.2 563.2l-38.4 0 0 38.4 38.4 0L691.2 563.2zM870.4 64 153.6 64C102.4 64 64 102.4 64 153.6l0 716.8C64 921.6 102.4 960 153.6 960l716.8 0c51.2 0 89.6-38.4 89.6-89.6L960 153.6C960 102.4 921.6 64 870.4 64zM800 729.6c0 38.4-32 70.4-70.4 70.4L294.4 800c-38.4 0-70.4-32-70.4-70.4L224 352 224 345.6 224 339.2 224 294.4c0-19.2 6.4-32 12.8-44.8l6.4-6.4C256 230.4 275.2 224 294.4 224L640 224l0 140.8 160 0L800 729.6zM294.4 403.2c-6.4 0-6.4 0-12.8 0l0 0c-6.4 0-6.4 0-12.8-6.4l0 0c0 0-6.4 0-6.4-6.4l0 332.8c0 19.2 19.2 38.4 38.4 38.4l428.8 0c19.2 0 38.4-19.2 38.4-38.4l0-38.4L620.8 684.8c-38.4 0-70.4-32-70.4-70.4l0-64c0-38.4 32-70.4 70.4-70.4l140.8 0L761.6 403.2l-128 0L294.4 403.2 294.4 403.2z" fill="#52CCA3" /></svg>